<svg xmlns="http://www.w3.org/2000/svg" width="72" height="72" viewBox="0 0 72 72">
<g>
<path d="M 39.02 51.92 C38.22,53.11 35.39,52.82 34.39,51.43 C33.90,50.75 26.98,47.18 19.00,43.50 C3.48,36.34 1.25,35.00 4.87,35.00 C6.11,35.00 13.52,31.75 21.32,27.79 C29.12,23.82 36.17,20.47 36.98,20.34 C37.80,20.21 44.83,23.42 52.60,27.47 C60.37,31.51 67.80,35.01 69.12,35.24 C70.91,35.54 67.56,37.55 55.52,43.39 C46.73,47.65 39.30,51.49 39.02,51.92 ZM 40.00 36.00 C40.00,42.58 40.40,47.00 40.99,47.00 C42.34,47.00 63.00,36.68 63.00,36.00 C63.00,35.32 42.34,25.00 40.99,25.00 C40.40,25.00 40.00,29.42 40.00,36.00 ZM 21.00 41.55 C26.77,44.45 32.06,46.87 32.75,46.91 C33.68,46.98 34.00,44.18 34.00,36.00 C34.00,29.95 33.77,25.00 33.48,25.00 C33.20,25.00 27.91,27.54 21.73,30.64 L 10.50 36.28 Z" fill="rgb(177,48,55)"/>
<path d="M 0.00 36.00 L 0.00 0.00 L 36.00 0.00 L 72.00 0.00 L 72.00 36.00 L 72.00 72.00 L 36.00 72.00 L 0.00 72.00 L 0.00 36.00 ZM 39.02 51.92 C39.30,51.49 46.73,47.65 55.52,43.39 C67.56,37.55 70.91,35.54 69.12,35.24 C67.80,35.01 60.37,31.51 52.60,27.47 C44.83,23.42 37.80,20.21 36.98,20.34 C36.17,20.47 29.12,23.82 21.32,27.79 C13.52,31.75 6.11,35.00 4.87,35.00 C1.25,35.00 3.48,36.34 19.00,43.50 C26.98,47.18 33.90,50.75 34.39,51.43 C35.39,52.82 38.22,53.11 39.02,51.92 ZM 21.00 41.55 L 10.50 36.28 L 21.73 30.64 C27.91,27.54 33.20,25.00 33.48,25.00 C33.77,25.00 34.00,29.95 34.00,36.00 C34.00,44.18 33.68,46.98 32.75,46.91 C32.06,46.87 26.77,44.45 21.00,41.55 ZM 40.00 36.00 C40.00,29.42 40.40,25.00 40.99,25.00 C42.34,25.00 63.00,35.32 63.00,36.00 C63.00,36.68 42.34,47.00 40.99,47.00 C40.40,47.00 40.00,42.58 40.00,36.00 Z" fill="rgb(253,252,252)"/>
</g>
</svg>
